<svg width="127" height="78" viewBox="0 0 127 78" fill="none" xmlns="http://www.w3.org/2000/svg">
<path d="M53.033 41.7857C53.033 56.4015 41.1611 68.25 26.5165 68.25C11.8718 68.25 0 56.4015 0 41.7857C0 27.1699 11.8718 15.3214 26.5165 15.3214C41.1611 15.3214 53.033 27.1699 53.033 41.7857Z" fill="#D9D9D9"/>
<path d="M64.1978 18.8036C64.1978 29.1885 55.7626 37.6071 45.3571 37.6071C34.9517 37.6071 26.5165 29.1885 26.5165 18.8036C26.5165 8.41865 34.9517 0 45.3571 0C55.7626 0 64.1978 8.41865 64.1978 18.8036Z" fill="#D9D9D9"/>
<path d="M79.5494 51.5357C79.5494 66.1515 67.6776 78 53.033 78C38.3883 78 26.5165 66.1515 26.5165 51.5357C26.5165 36.9199 38.3883 25.0714 53.033 25.0714C67.6776 25.0714 79.5494 36.9199 79.5494 51.5357Z" fill="#D9D9D9"/>
<path d="M106.066 29.9464C106.066 44.5623 94.1941 56.4107 79.5494 56.4107C64.9048 56.4107 53.033 44.5623 53.033 29.9464C53.033 15.3306 64.9048 3.48214 79.5494 3.48214C94.1941 3.48214 106.066 15.3306 106.066 29.9464Z" fill="#D9D9D9"/>
<path d="M106.764 56.0625C106.764 67.409 97.5474 76.6071 86.1786 76.6071C74.8097 76.6071 65.5934 67.409 65.5934 56.0625C65.5934 44.716 74.8097 35.5179 86.1786 35.5179C97.5474 35.5179 106.764 44.716 106.764 56.0625Z" fill="#D9D9D9"/>
<path d="M127 35.8661C127 47.2126 117.784 56.4107 106.415 56.4107C95.046 56.4107 85.8297 47.2126 85.8297 35.8661C85.8297 24.5196 95.046 15.3214 106.415 15.3214C117.784 15.3214 127 24.5196 127 35.8661Z" fill="#D9D9D9"/>
</svg>
