<svg width="127" height="78" viewBox="0 0 127 78" fill="none" xmlns="http://www.w3.org/2000/svg">
<path d="M45.3041 40.681C45.3041 52.0076 35.1624 61.1897 22.652 61.1897C10.1417 61.1897 0 52.0076 0 40.681C0 29.3544 10.1417 20.1724 22.652 20.1724C35.1624 20.1724 45.3041 29.3544 45.3041 40.681Z" fill="#D9D9D9"/>
<path d="M68.3275 27.9052C68.3275 39.2318 58.1858 48.4138 45.6754 48.4138C33.1651 48.4138 23.0234 39.2318 23.0234 27.9052C23.0234 16.5786 33.1651 7.39655 45.6754 7.39655C58.1858 7.39655 68.3275 16.5786 68.3275 27.9052Z" fill="#D9D9D9"/>
<path d="M75.0117 46.0603C75.0117 57.3869 64.87 66.569 52.3597 66.569C39.8493 66.569 29.7076 57.3869 29.7076 46.0603C29.7076 34.7337 39.8493 25.5517 52.3597 25.5517C64.87 25.5517 75.0117 34.7337 75.0117 46.0603Z" fill="#D9D9D9"/>
<path d="M67.5848 57.4914C67.5848 68.818 57.4431 78 44.9328 78C32.4224 78 22.2807 68.818 22.2807 57.4914C22.2807 46.1648 32.4224 36.9828 44.9328 36.9828C57.4431 36.9828 67.5848 46.1648 67.5848 57.4914Z" fill="#D9D9D9"/>
<path d="M98.0351 50.7672C98.0351 62.0938 87.8934 71.2759 75.383 71.2759C62.8727 71.2759 52.731 62.0938 52.731 50.7672C52.731 39.4406 62.8727 30.2586 75.383 30.2586C87.8934 30.2586 98.0351 39.4406 98.0351 50.7672Z" fill="#D9D9D9"/>
<path d="M98.0351 20.5086C98.0351 31.8352 87.8934 41.0172 75.383 41.0172C62.8727 41.0172 52.731 31.8352 52.731 20.5086C52.731 9.18202 62.8727 0 75.383 0C87.8934 0 98.0351 9.18202 98.0351 20.5086Z" fill="#D9D9D9"/>
<path d="M127 36.6466C127 47.9731 116.858 57.1552 104.348 57.1552C91.8376 57.1552 81.6959 47.9731 81.6959 36.6466C81.6959 25.32 91.8376 16.1379 104.348 16.1379C116.858 16.1379 127 25.32 127 36.6466Z" fill="#D9D9D9"/>
</svg>
