<svg width="214" height="213" viewBox="0 0 214 213" fill="none" xmlns="http://www.w3.org/2000/svg">
<path d="M109.004 207C93.3586 206.957 64.6833 205.649 40.4263 182.749C16.1693 159.848 6.65913 140.114 6.00725 103.868C5.35538 67.6215 48.859 61 48.859 93.1764C48.859 103.132 46.0532 122.741 60.5 121.5C73 120.426 68.1962 106.706 68.1962 93.1764C68.1962 77.5 79.6693 72.7064 87.3614 72.7064C95.0535 72.7064 103.493 76.1322 103.5 99M104.996 16C120.641 16.0435 149.317 17.3506 173.574 40.2511C197.831 63.1515 207.341 82.886 207.993 119.132C208.645 155.378 165.141 169.983 165.141 129.824C165.141 119.132 166.931 101.691 154.5 103C145 104 145.804 115.221 145.804 129.824C145.804 144.426 138.5 151.5 127 151.5C112.5 151.5 106.5 142.676 106.5 133" stroke="url(#paint0_linear_224_13)" stroke-width="11" stroke-linecap="round"/>
<circle cx="104" cy="115" r="6" fill="url(#paint1_linear_224_13)"/>
<defs>
<linearGradient id="paint0_linear_224_13" x1="107" y1="16" x2="107" y2="207" gradientUnits="userSpaceOnUse">
<stop stop-color="#C9A5E2"/>
<stop offset="1" stop-color="#5B80C6"/>
</linearGradient>
<linearGradient id="paint1_linear_224_13" x1="104" y1="109" x2="104" y2="121" gradientUnits="userSpaceOnUse">
<stop stop-color="#C9A5E2"/>
<stop offset="1" stop-color="#5B80C6"/>
</linearGradient>
</defs>
</svg>
