<svg width="153" height="56" viewBox="0 0 153 56" fill="none" xmlns="http://www.w3.org/2000/svg">
<rect x="7" y="6" width="146" height="50" rx="25" fill="url(#paint0_linear_32_224)"/>
<rect x="1.5" y="1.5" width="145" height="48" rx="24" fill="#403F45" stroke="white" stroke-width="3"/>
<path d="M52.984 19.4C54.088 19.4 54.922 19.67 55.486 20.21C56.062 20.75 56.35 21.536 56.35 22.568C56.35 23.108 56.218 23.6 55.954 24.044C55.702 24.476 55.324 24.818 54.82 25.07C54.328 25.322 53.71 25.454 52.966 25.466L53.002 24.8C53.398 24.8 53.824 24.854 54.28 24.962C54.748 25.07 55.186 25.256 55.594 25.52C56.002 25.784 56.338 26.144 56.602 26.6C56.866 27.044 56.998 27.602 56.998 28.274C56.998 29.006 56.878 29.618 56.638 30.11C56.398 30.59 56.08 30.968 55.684 31.244C55.288 31.52 54.85 31.718 54.37 31.838C53.902 31.946 53.44 32 52.984 32H48.376C48.124 32 47.908 31.916 47.728 31.748C47.548 31.568 47.458 31.346 47.458 31.082V20.318C47.458 20.054 47.548 19.838 47.728 19.67C47.908 19.49 48.124 19.4 48.376 19.4H52.984ZM52.732 21.164H49.186L49.402 20.876V24.746L49.204 24.548H52.768C53.2 24.536 53.578 24.392 53.902 24.116C54.238 23.828 54.406 23.408 54.406 22.856C54.406 22.292 54.256 21.872 53.956 21.596C53.656 21.308 53.248 21.164 52.732 21.164ZM52.858 26.312H49.276L49.402 26.186V30.434L49.258 30.272H52.966C53.59 30.272 54.094 30.11 54.478 29.786C54.862 29.45 55.054 28.946 55.054 28.274C55.054 27.71 54.94 27.29 54.712 27.014C54.484 26.738 54.202 26.552 53.866 26.456C53.53 26.36 53.194 26.312 52.858 26.312ZM65.8953 22.532C66.1473 22.532 66.3573 22.622 66.5253 22.802C66.7053 22.97 66.7953 23.186 66.7953 23.45V28.184C66.7953 29.432 66.4473 30.41 65.7513 31.118C65.0553 31.814 64.0713 32.162 62.7993 32.162C61.5393 32.162 60.5613 31.814 59.8653 31.118C59.1813 30.41 58.8393 29.432 58.8393 28.184V23.45C58.8393 23.186 58.9233 22.97 59.0913 22.802C59.2593 22.622 59.4753 22.532 59.7393 22.532C59.9913 22.532 60.2013 22.622 60.3693 22.802C60.5493 22.97 60.6393 23.186 60.6393 23.45V28.184C60.6393 28.964 60.8193 29.546 61.1793 29.93C61.5513 30.314 62.0913 30.506 62.7993 30.506C63.5193 30.506 64.0653 30.314 64.4373 29.93C64.8093 29.546 64.9953 28.964 64.9953 28.184V23.45C64.9953 23.186 65.0793 22.97 65.2473 22.802C65.4153 22.622 65.6313 22.532 65.8953 22.532ZM68.9743 22.64H73.2043C73.4443 22.64 73.6423 22.724 73.7983 22.892C73.9663 23.048 74.0503 23.246 74.0503 23.486C74.0503 23.714 73.9663 23.906 73.7983 24.062C73.6423 24.218 73.4443 24.296 73.2043 24.296H68.9743C68.7343 24.296 68.5303 24.218 68.3623 24.062C68.2063 23.894 68.1283 23.696 68.1283 23.468C68.1283 23.228 68.2063 23.03 68.3623 22.874C68.5303 22.718 68.7343 22.64 68.9743 22.64ZM70.8643 20.3C71.1283 20.3 71.3443 20.39 71.5123 20.57C71.6803 20.738 71.7643 20.954 71.7643 21.218V29.57C71.7643 29.786 71.8003 29.96 71.8723 30.092C71.9443 30.224 72.0403 30.314 72.1603 30.362C72.2923 30.41 72.4243 30.434 72.5563 30.434C72.6883 30.434 72.8023 30.41 72.8983 30.362C73.0063 30.314 73.1323 30.29 73.2763 30.29C73.4203 30.29 73.5523 30.356 73.6723 30.488C73.7923 30.62 73.8523 30.8 73.8523 31.028C73.8523 31.316 73.6963 31.55 73.3843 31.73C73.0723 31.91 72.7363 32 72.3763 32C72.1723 32 71.9323 31.982 71.6563 31.946C71.3803 31.91 71.1103 31.82 70.8463 31.676C70.5943 31.532 70.3843 31.304 70.2163 30.992C70.0483 30.668 69.9643 30.218 69.9643 29.642V21.218C69.9643 20.954 70.0483 20.738 70.2163 20.57C70.3963 20.39 70.6123 20.3 70.8643 20.3ZM75.7197 22.64H79.9497C80.1897 22.64 80.3877 22.724 80.5437 22.892C80.7117 23.048 80.7957 23.246 80.7957 23.486C80.7957 23.714 80.7117 23.906 80.5437 24.062C80.3877 24.218 80.1897 24.296 79.9497 24.296H75.7197C75.4797 24.296 75.2757 24.218 75.1077 24.062C74.9517 23.894 74.8737 23.696 74.8737 23.468C74.8737 23.228 74.9517 23.03 75.1077 22.874C75.2757 22.718 75.4797 22.64 75.7197 22.64ZM77.6097 20.3C77.8737 20.3 78.0897 20.39 78.2577 20.57C78.4257 20.738 78.5097 20.954 78.5097 21.218V29.57C78.5097 29.786 78.5457 29.96 78.6177 30.092C78.6897 30.224 78.7857 30.314 78.9057 30.362C79.0377 30.41 79.1697 30.434 79.3017 30.434C79.4337 30.434 79.5477 30.41 79.6437 30.362C79.7517 30.314 79.8777 30.29 80.0217 30.29C80.1657 30.29 80.2977 30.356 80.4177 30.488C80.5377 30.62 80.5977 30.8 80.5977 31.028C80.5977 31.316 80.4417 31.55 80.1297 31.73C79.8177 31.91 79.4817 32 79.1217 32C78.9177 32 78.6777 31.982 78.4017 31.946C78.1257 31.91 77.8557 31.82 77.5917 31.676C77.3397 31.532 77.1297 31.304 76.9617 30.992C76.7937 30.668 76.7097 30.218 76.7097 29.642V21.218C76.7097 20.954 76.7937 20.738 76.9617 20.57C77.1417 20.39 77.3577 20.3 77.6097 20.3ZM91.5752 27.266C91.5752 28.226 91.3652 29.078 90.9452 29.822C90.5252 30.554 89.9552 31.13 89.2352 31.55C88.5152 31.97 87.7052 32.18 86.8052 32.18C85.9052 32.18 85.0952 31.97 84.3752 31.55C83.6552 31.13 83.0792 30.554 82.6472 29.822C82.2272 29.078 82.0172 28.226 82.0172 27.266C82.0172 26.294 82.2272 25.442 82.6472 24.71C83.0792 23.966 83.6552 23.384 84.3752 22.964C85.0952 22.532 85.9052 22.316 86.8052 22.316C87.7052 22.316 88.5152 22.532 89.2352 22.964C89.9552 23.384 90.5252 23.966 90.9452 24.71C91.3652 25.442 91.5752 26.294 91.5752 27.266ZM89.7752 27.266C89.7752 26.606 89.6432 26.036 89.3792 25.556C89.1152 25.064 88.7552 24.68 88.2992 24.404C87.8552 24.116 87.3572 23.972 86.8052 23.972C86.2532 23.972 85.7492 24.116 85.2932 24.404C84.8372 24.68 84.4772 25.064 84.2132 25.556C83.9492 26.036 83.8172 26.606 83.8172 27.266C83.8172 27.902 83.9492 28.466 84.2132 28.958C84.4772 29.45 84.8372 29.834 85.2932 30.11C85.7492 30.386 86.2532 30.524 86.8052 30.524C87.3572 30.524 87.8552 30.386 88.2992 30.11C88.7552 29.834 89.1152 29.45 89.3792 28.958C89.6432 28.466 89.7752 27.902 89.7752 27.266ZM98.2925 22.316C99.1445 22.316 99.8045 22.496 100.273 22.856C100.741 23.204 101.065 23.678 101.245 24.278C101.437 24.866 101.533 25.526 101.533 26.258V31.082C101.533 31.346 101.443 31.568 101.263 31.748C101.095 31.916 100.885 32 100.633 32C100.369 32 100.153 31.916 99.9845 31.748C99.8165 31.568 99.7325 31.346 99.7325 31.082V26.276C99.7325 25.844 99.6725 25.46 99.5525 25.124C99.4325 24.776 99.2225 24.5 98.9225 24.296C98.6345 24.08 98.2265 23.972 97.6985 23.972C97.2065 23.972 96.7745 24.08 96.4025 24.296C96.0305 24.5 95.7365 24.776 95.5205 25.124C95.3165 25.46 95.2145 25.844 95.2145 26.276V31.082C95.2145 31.346 95.1245 31.568 94.9445 31.748C94.7765 31.916 94.5665 32 94.3145 32C94.0505 32 93.8345 31.916 93.6665 31.748C93.4985 31.568 93.4145 31.346 93.4145 31.082V23.45C93.4145 23.186 93.4985 22.97 93.6665 22.802C93.8345 22.622 94.0505 22.532 94.3145 22.532C94.5665 22.532 94.7765 22.622 94.9445 22.802C95.1245 22.97 95.2145 23.186 95.2145 23.45V24.458L94.8905 24.638C94.9745 24.374 95.1185 24.11 95.3225 23.846C95.5385 23.57 95.7965 23.318 96.0965 23.09C96.3965 22.85 96.7325 22.664 97.1045 22.532C97.4765 22.388 97.8725 22.316 98.2925 22.316Z" fill="white"/>
<defs>
<linearGradient id="paint0_linear_32_224" x1="7" y1="31" x2="153" y2="31" gradientUnits="userSpaceOnUse">
<stop offset="0.1" stop-color="#FF7C82"/>
<stop offset="0.315" stop-color="#98AD8D"/>
<stop offset="0.56" stop-color="#98CCC9"/>
<stop offset="0.88" stop-color="#998CED"/>
</linearGradient>
</defs>
</svg>
